# xmcd
#
# Track frame offsets:
#	150
#	17758
#	34877
#	53532
#	68895
#	89907
#	106857
#	124260
#	140721
#	155648
#	172191
#	193056
#	216799
#	232398
#	248670
#	267207
#	284921
#	305907
#
# Disc length: 4288
#
# Revision: 1
# Processed by: cddbd v1.5.1PL0 Copyright (c) Steve Scherf et al.
# Submitted via: dBpowerAMP V4.0
# Normalized: r0:TRMNUM
#
DISCID=2310be12
DTITLE=Sertanejo Romântico 2003 - Sertanejo Romântico 2003
DYEAR=2003
DGENRE=Sertanejo
TTITLE0=Tentei te esquecer/Mato Grosso e Matias
TTITLE1=Nós bares da cidade/Rick e Renner
TTITLE2=Na Batida do seu coração/Gian e Giovani
TTITLE3=Brincadeira tem Hora/Leonardo
TTITLE4=O nosso amor/Guilherme e Santiago
TTITLE5=Como eu chorei/Bruno e Marrone
TTITLE6=Eu tambem quero ser amado/Gian e Giovani
TTITLE7=Madrugada triste/Rionegro e Solimões
TTITLE8=Preciso te encontrar/Rick e Renner
TTITLE9=Quando o amor e pra valer/Ataide é Alexandre
TTITLE10=Tempestade de paixão/Guilherme e Santiago
TTITLE11=Nosso amor terminou/Corpo e Alma
TTITLE12=Ligação urbana/Bruno e Marrone
TTITLE13=Pra salvar minha vida/Gino e Geno
TTITLE14=Lençol/Rionegro e Solimões
TTITLE15=Na última hora/Gian e Giovane
TTITLE16=Volta pra casa/Rick e Renner
TTITLE17=Porque/Guilherme e Santiago
EXTD=
EXTT0=
EXTT1=
EXTT2=
EXTT3=
EXTT4=
EXTT5=
EXTT6=
EXTT7=
EXTT8=
EXTT9=
EXTT10=
EXTT11=
EXTT12=
EXTT13=
EXTT14=
EXTT15=
EXTT16=
EXTT17=
PLAYORDER=
